<svg xmlns="http://www.w3.org/2000/svg" width="12" height="12" viewBox="0 0 12 12">
    <g fill="none" fill-rule="nonzero">
        <path d="M5.86 2.233a.28.28 0 1 0 0 .558.28.28 0 0 0 0-.558"/>
        <path fill="#4C4C4C" d="M5.86 3.35a.838.838 0 0 1 0-1.675.838.838 0 0 1 0 1.674zm.838 5.86a.838.838 0 0 1-1.675 0V4.744a.838.838 0 0 1 1.675 0V9.21zM5.86 0A5.867 5.867 0 0 0 0 5.86c0 3.232 2.63 5.861 5.86 5.861 3.232 0 5.86-2.629 5.86-5.86C11.72 2.629 9.093 0 5.86 0z"/>
        <path d="M5.86 4.465a.28.28 0 0 0-.279.28V9.21a.28.28 0 0 0 .559 0V4.744a.28.28 0 0 0-.28-.279"/>
    </g>
</svg>
