<svg xmlns="http://www.w3.org/2000/svg" width="30" height="36" viewBox="0 0 30 36">
    <g fill="#E5D13F" fill-rule="nonzero">
        <path d="M14.595 27.92a3.18 3.18 0 0 1-2.538-1.269h5.074a3.177 3.177 0 0 1-2.536 1.27m-10.52-4.302a.636.636 0 0 1-.76.479.636.636 0 0 1-.478-.76c1.253-5.522 6.088-9.378 11.758-9.378a.634.634 0 1 1 0 1.27c-5.073 0-9.4 3.449-10.52 8.39m14.961-11.496V8.249a.634.634 0 0 0-.634-.634h-3.173V.635a.634.634 0 1 0-1.269 0v6.98h-3.173a.634.634 0 0 0-.634.634v3.874C4.153 14.041 0 19.678 0 26.016c0 .351.284.635.635.635h9.958a4.442 4.442 0 0 0 4.002 2.538 4.442 4.442 0 0 0 4-2.538h9.96c.35 0 .634-.284.634-.635 0-6.339-4.154-11.975-10.153-13.892M14.108 36c-.269 0-.486-.29-.486-.649v-2.594c0-.359.217-.649.486-.649.27 0 .487.29.487.649v2.594c0 .36-.218.649-.487.649M20.676 35.027a.732.732 0 0 1-.632-.356l-1.46-2.467a.703.703 0 0 1 .268-.973.74.74 0 0 1 .996.26l1.46 2.468a.703.703 0 0 1-.268.973.737.737 0 0 1-.364.095M24.584 31.135a.694.694 0 0 1-.355-.098l-2.467-1.459a.74.74 0 0 1-.261-.996.701.701 0 0 1 .973-.267l2.467 1.459a.738.738 0 0 1 .26.996.708.708 0 0 1-.617.365M9.486 35.027a.737.737 0 0 1-.364-.095.702.702 0 0 1-.267-.973l1.46-2.468a.739.739 0 0 1 .996-.26c.348.196.469.632.267.973l-1.46 2.467a.732.732 0 0 1-.632.356M5.578 31.135a.708.708 0 0 1-.618-.365.74.74 0 0 1 .261-.996l2.467-1.46a.702.702 0 0 1 .973.268.739.739 0 0 1-.26.996l-2.468 1.46a.694.694 0 0 1-.355.097"/>
    </g>
</svg>
