<?xml version="1.0" encoding="utf-8"?>
<!-- Generator: Adobe Illustrator 18.0.0, SVG Export Plug-In . SVG Version: 6.00 Build 0)  -->
<!DOCTYPE svg PUBLIC "-//W3C//DTD SVG 1.1//EN" "http://www.w3.org/Graphics/SVG/1.1/DTD/svg11.dtd">
<svg version="1.1" id="Layer_1" xmlns="http://www.w3.org/2000/svg" xmlns:xlink="http://www.w3.org/1999/xlink" x="0px" y="0px"
	 viewBox="0 0 40 41" enable-background="new 0 0 40 41" xml:space="preserve">
<g id="view_x5F_photo_x2F_comments_x2F_form_x5F_component-copy" transform="translate(-1194.000000, -1125.000000)">
	<g id="emo-memory-copy" transform="translate(1194.000000, 1125.000000)">
		<path id="Shape" fill="#2D2C2C" d="M20,8.7C13.5,8.7,8.2,14,8.2,20.5S13.5,32.3,20,32.3S31.8,27,31.8,20.5S26.5,8.7,20,8.7z
			 M20,31.5c-6,0-11-4.9-11-11s4.9-11,11-11s11,4.9,11,11S26,31.5,20,31.5z"/>
		<path id="Shape_1_" fill="#2D2C2C" d="M28.2,24.1c-0.2-0.2-0.4-0.2-0.6,0c-0.7,0.7-1.6,0.2-2.9-0.6c-0.9-0.6-1.9-1.3-2.9-1.3
			c-0.9,0-1.4,0.3-1.7,0.6c-0.3-0.3-0.9-0.6-1.8-0.6c-1,0-2,0.6-2.9,1.3c-1.3,0.9-2.2,1.4-2.9,0.6c-0.2-0.2-0.4-0.2-0.6,0
			c-0.2,0.2-0.2,0.4,0,0.6c0.1,0.1,2.4,2.8,5.6,2.8c1.5,0,2.2-0.5,2.6-1.1c0.4,0.5,1.2,1.1,2.6,1.1c3.2,0,5.5-2.7,5.6-2.8
			C28.4,24.5,28.4,24.3,28.2,24.1z M22.6,26.6c-2,0-2.2-1.2-2.2-1.3c0-0.2-0.2-0.4-0.4-0.4h0c-0.2,0-0.4,0.2-0.4,0.4
			c0,0.1-0.1,1.3-2.2,1.3c-1.5,0-2.7-0.7-3.6-1.3c0.7-0.2,1.4-0.6,2.1-1.1c0.8-0.5,1.6-1.1,2.4-1.1c1,0,1.3,0.6,1.4,0.6
			c0.1,0.1,0.2,0.2,0.4,0.2c0.2,0,0.3-0.1,0.4-0.2c0,0,0.4-0.6,1.4-0.6c0.8,0,1.6,0.6,2.4,1.1c0.7,0.4,1.4,0.9,2.1,1.1
			C25.4,26,24.1,26.6,22.6,26.6z"/>
		<circle id="Oval" fill="#2D2C2C" cx="23.9" cy="17" r="0.9"/>
		<circle id="Oval_1_" fill="#2D2C2C" cx="16.1" cy="17" r="0.9"/>
	</g>
</g>
</svg>
