<svg xmlns="http://www.w3.org/2000/svg" width="11" height="14" viewBox="0 0 11 14">
    <path fill="#ff4141" fill-rule="nonzero" d="M7.596 12.102l-.633-.024.317-8.272.632.024-.316 8.272zM6.963 1.91H3.798v-.636c0-.351.284-.637.633-.637H6.33c.349 0 .633.286.633.637v.636zm-1.9 10.181h.634V3.818h-.633v8.272zm-1.898.012L2.85 3.83l.632-.024.317 8.272-.633.024zM7.595 1.91v-.636A1.27 1.27 0 0 0 6.33 0h-1.9a1.27 1.27 0 0 0-1.265 1.273v.636H0v.636h.66l.925 10.22c.087.737.595 1.234 1.263 1.235h5.065c.651 0 1.182-.521 1.264-1.244l.923-10.21h.66v-.637H7.597z"/>
</svg>
