<?xml version="1.0" encoding="utf-8"?>
<!-- Generator: Adobe Illustrator 18.0.0, SVG Export Plug-In . SVG Version: 6.00 Build 0)  -->
<!DOCTYPE svg PUBLIC "-//W3C//DTD SVG 1.1//EN" "http://www.w3.org/Graphics/SVG/1.1/DTD/svg11.dtd">
<svg version="1.1" id="Layer_1" xmlns="http://www.w3.org/2000/svg" xmlns:xlink="http://www.w3.org/1999/xlink" x="0px" y="0px"
	 viewBox="0 0 23.9 23.8" enable-background="new 0 0 23.9 23.8" xml:space="preserve">
<g>
	<g>
		<path fill="#FFFFFF" d="M15.5,15.7H0.4c-0.1,0-0.3-0.1-0.3-0.3V0.3C0.1,0.1,0.2,0,0.4,0h15.1c0.1,0,0.3,0.1,0.3,0.3v15.2
			C15.8,15.6,15.7,15.7,15.5,15.7z M23.6,10.1h-6.7c-0.2,0-0.3-0.1-0.3-0.3V0.3c0-0.1,0.1-0.3,0.3-0.3h6.7c0.2,0,0.3,0.1,0.3,0.3
			v9.6C23.9,10,23.8,10.1,23.6,10.1z M23.6,23.8H0.4c-0.1,0-0.3-0.1-0.3-0.3v-6.7c0-0.2,0.1-0.3,0.3-0.3h23.2c0.2,0,0.3,0.1,0.3,0.3
			v6.7C23.9,23.7,23.8,23.8,23.6,23.8z M23.6,15.7h-6.7c-0.2,0-0.3-0.1-0.3-0.3v-4.1c0-0.1,0.1-0.3,0.3-0.3h6.7
			c0.2,0,0.3,0.1,0.3,0.3v4.1C23.9,15.6,23.8,15.7,23.6,15.7z"/>
	</g>
</g>
</svg>
