<?xml version="1.0" encoding="utf-8"?>
<!-- Generator: Adobe Illustrator 18.0.0, SVG Export Plug-In . SVG Version: 6.00 Build 0)  -->
<!DOCTYPE svg PUBLIC "-//W3C//DTD SVG 1.1//EN" "http://www.w3.org/Graphics/SVG/1.1/DTD/svg11.dtd">
<svg version="1.1" id="Layer_1" xmlns="http://www.w3.org/2000/svg" xmlns:xlink="http://www.w3.org/1999/xlink" x="0px" y="0px"
	 viewBox="0 0 300 300" enable-background="new 0 0 300 300" xml:space="preserve">
<g>
	<g>
		<path fill="#2C2C2C" d="M194.6,197.7H5c-1.3,0-3.8-1.3-3.8-3.8V4.4c0-2.5,1.3-3.8,3.8-3.8h189.5c1.3,0,3.8,1.3,3.8,3.8v190.8
			C198.3,196.4,197.1,197.7,194.6,197.7z M296.2,127.4h-84.1c-2.5,0-3.8-1.3-3.8-3.8V4.4c0-1.3,1.3-3.8,3.8-3.8h84.1
			c2.5,0,3.8,1.3,3.8,3.8v120.5C300,126.2,298.7,127.4,296.2,127.4z M296.2,299.4H5c-1.3,0-3.8-1.3-3.8-3.8v-84.1
			c0-2.5,1.3-3.8,3.8-3.8h291.2c2.5,0,3.8,1.3,3.8,3.8v84.1C300,298.1,298.7,299.4,296.2,299.4z M296.2,197.7h-84.1
			c-2.5,0-3.8-1.3-3.8-3.8v-51.5c0-1.3,1.3-3.8,3.8-3.8h84.1c2.5,0,3.8,1.3,3.8,3.8v51.5C300,196.4,298.7,197.7,296.2,197.7z"/>
	</g>
</g>
</svg>
