<?xml version="1.0" encoding="utf-8"?>
<!-- Generator: Adobe Illustrator 18.0.0, SVG Export Plug-In . SVG Version: 6.00 Build 0)  -->
<!DOCTYPE svg PUBLIC "-//W3C//DTD SVG 1.1//EN" "http://www.w3.org/Graphics/SVG/1.1/DTD/svg11.dtd">
<svg version="1.1" id="Layer_1" xmlns="http://www.w3.org/2000/svg" xmlns:xlink="http://www.w3.org/1999/xlink" x="0px" y="0px"
	 viewBox="0 0 174 24" enable-background="new 0 0 174 24" xml:space="preserve">
<g>
	<path fill="#2C2C2C" d="M41,17.7c-0.8-0.3-1.5-0.7-2-1.2c-0.1-0.1-0.2-0.3-0.2-0.4c0-0.1,0-0.2,0.1-0.3c0.1-0.1,0.1-0.1,0.2-0.1
		s0.2,0.1,0.3,0.2c1.2,1,2.6,1.6,4.2,1.6c1.2,0,2.1-0.2,2.7-0.7c0.6-0.5,1-1.2,1-2.1c0-0.5-0.2-0.9-0.5-1.3
		c-0.3-0.3-0.7-0.6-1.2-0.7c-0.6-0.2-1.2-0.4-1.9-0.5c-0.8-0.2-1.6-0.4-2.4-0.7c-0.6-0.2-1.1-0.6-1.5-1c-0.4-0.5-0.7-1.1-0.7-1.9
		c0-0.7,0.2-1.3,0.6-1.9c0.4-0.6,0.9-1,1.6-1.3C42,5,42.8,4.8,43.6,4.8c0.8,0,1.6,0.2,2.4,0.4s1.4,0.7,1.8,1.2C48,6.6,48,6.8,48,6.9
		c0,0.1,0,0.2-0.1,0.3c0,0.1-0.1,0.1-0.2,0.1c-0.1,0-0.2-0.1-0.3-0.2c-0.7-0.6-1.3-1-1.9-1.2c-0.6-0.2-1.3-0.3-2-0.3
		c-1.2,0-2.1,0.3-2.7,0.8c-0.6,0.5-1,1.2-1,2.1c0,0.5,0.2,1,0.4,1.3c0.3,0.3,0.6,0.6,1.1,0.8c0.4,0.2,1,0.4,1.7,0.5l0.8,0.2
		c0.9,0.2,1.6,0.4,2.2,0.6c0.5,0.2,1,0.5,1.4,1c0.4,0.4,0.6,1,0.6,1.7c0,0.7-0.2,1.3-0.6,1.8c-0.4,0.5-0.9,0.9-1.6,1.2
		c-0.7,0.3-1.5,0.4-2.3,0.4C42.7,18.1,41.8,18,41,17.7z M56.8,9.6c0.5,0.6,0.8,1.4,0.8,2.5v5.4c0,0.1,0,0.2-0.1,0.3
		C57.4,18,57.3,18,57.2,18c-0.1,0-0.2,0-0.3-0.1c-0.1-0.1-0.1-0.2-0.1-0.3v-5.4c0-1-0.2-1.7-0.6-2.1s-1-0.6-1.8-0.6
		c-0.9,0-1.7,0.3-2.3,0.9c-0.6,0.6-0.8,1.4-0.8,2.3v4.9c0,0.1,0,0.2-0.1,0.3C51.2,18,51.1,18,50.9,18c-0.1,0-0.2-0.1-0.3-0.1
		c-0.1-0.1-0.1-0.2-0.1-0.3V5.2c0-0.1,0-0.2,0.1-0.3c0.1-0.1,0.2-0.1,0.3-0.1c0.1,0,0.2,0,0.3,0.1c0.1,0.1,0.1,0.2,0.1,0.3v5.3
		c0.3-0.6,0.7-1,1.2-1.3c0.5-0.3,1.2-0.5,1.8-0.5C55.4,8.8,56.2,9.1,56.8,9.6L56.8,9.6z M62,17.5c-0.6-0.4-1.1-0.9-1.4-1.6
		c-0.3-0.7-0.5-1.5-0.5-2.5c0-0.9,0.2-1.7,0.5-2.4c0.3-0.7,0.8-1.2,1.4-1.6C62.5,9,63.2,8.8,64,8.8c0.8,0,1.5,0.2,2.1,0.6
		c0.6,0.4,1.1,0.9,1.4,1.6c0.3,0.7,0.5,1.5,0.5,2.4c0,0.9-0.2,1.8-0.5,2.5c-0.3,0.7-0.8,1.2-1.4,1.6c-0.6,0.4-1.3,0.6-2.1,0.6
		C63.2,18.1,62.6,17.9,62,17.5L62,17.5z M66.3,16.3c0.5-0.7,0.8-1.6,0.8-2.9c0-1.2-0.3-2.2-0.8-2.8c-0.6-0.7-1.3-1-2.3-1
		c-1,0-1.7,0.3-2.3,1c-0.6,0.7-0.8,1.6-0.8,2.8c0,1.3,0.3,2.2,0.8,2.9c0.5,0.7,1.3,1,2.3,1C65,17.3,65.8,17,66.3,16.3L66.3,16.3z
		 M71.8,17.5c-0.6-0.4-1.1-0.9-1.4-1.6c-0.3-0.7-0.5-1.5-0.5-2.5c0-0.9,0.2-1.7,0.5-2.4c0.3-0.7,0.8-1.2,1.4-1.6
		c0.6-0.4,1.3-0.6,2.1-0.6c0.8,0,1.5,0.2,2.1,0.6c0.6,0.4,1.1,0.9,1.4,1.6c0.3,0.7,0.5,1.5,0.5,2.4c0,0.9-0.2,1.8-0.5,2.5
		c-0.3,0.7-0.8,1.2-1.4,1.6c-0.6,0.4-1.3,0.6-2.1,0.6C73.1,18.1,72.4,17.9,71.8,17.5L71.8,17.5z M76.2,16.3c0.5-0.7,0.8-1.6,0.8-2.9
		c0-1.2-0.3-2.2-0.8-2.8c-0.6-0.7-1.3-1-2.3-1s-1.7,0.3-2.3,1c-0.6,0.7-0.8,1.6-0.8,2.8c0,1.3,0.3,2.2,0.8,2.9c0.5,0.7,1.3,1,2.3,1
		C74.9,17.3,75.6,17,76.2,16.3L76.2,16.3z M84.4,17.7c0,0.3-0.2,0.4-0.5,0.4l-0.5,0c-0.9-0.1-1.6-0.3-2-0.9
		c-0.4-0.5-0.6-1.3-0.6-2.3V9.7h-1.5c-0.1,0-0.2,0-0.2-0.1c-0.1-0.1-0.1-0.1-0.1-0.2c0-0.1,0-0.2,0.1-0.3C79,9,79.1,9,79.2,9h1.5
		V6.5c0-0.1,0-0.2,0.1-0.3c0.1-0.1,0.2-0.1,0.3-0.1s0.2,0,0.3,0.1c0.1,0.1,0.1,0.2,0.1,0.3V9h2.4C84,9,84,9,84.1,9.1
		c0.1,0.1,0.1,0.2,0.1,0.3c0,0.1,0,0.2-0.1,0.2c-0.1,0.1-0.1,0.1-0.2,0.1h-2.4v5.2c0,0.8,0.2,1.5,0.5,1.8c0.3,0.4,0.8,0.6,1.5,0.6
		l0.5,0C84.3,17.4,84.4,17.5,84.4,17.7L84.4,17.7z M94.1,17.9c-0.1-0.1-0.1-0.2-0.1-0.3v-12h-4.5c-0.1,0-0.2,0-0.2-0.1
		c-0.1-0.1-0.1-0.2-0.1-0.3c0-0.1,0-0.2,0.1-0.3c0.1-0.1,0.1-0.1,0.2-0.1h9.8c0.1,0,0.2,0,0.2,0.1c0.1,0.1,0.1,0.2,0.1,0.3
		c0,0.1,0,0.2-0.1,0.3c-0.1,0.1-0.2,0.1-0.2,0.1h-4.5v12c0,0.1,0,0.2-0.1,0.3c-0.1,0.1-0.2,0.1-0.3,0.1C94.3,18.1,94.2,18,94.1,17.9
		L94.1,17.9z M107.6,9.6c0.5,0.6,0.8,1.4,0.8,2.5v5.4c0,0.1,0,0.2-0.1,0.3c-0.1,0.1-0.2,0.1-0.3,0.1c-0.1,0-0.2,0-0.3-0.1
		c-0.1-0.1-0.1-0.2-0.1-0.3v-5.4c0-1-0.2-1.7-0.6-2.1c-0.4-0.4-1-0.6-1.8-0.6c-0.9,0-1.7,0.3-2.3,0.9c-0.6,0.6-0.8,1.4-0.8,2.3v4.9
		c0,0.1,0,0.2-0.1,0.3c-0.1,0.1-0.2,0.1-0.3,0.1c-0.1,0-0.2-0.1-0.3-0.1c-0.1-0.1-0.1-0.2-0.1-0.3V5.2c0-0.1,0-0.2,0.1-0.3
		c0.1-0.1,0.2-0.1,0.3-0.1c0.1,0,0.2,0,0.3,0.1c0.1,0.1,0.1,0.2,0.1,0.3v5.3c0.3-0.6,0.7-1,1.2-1.3c0.5-0.3,1.2-0.5,1.8-0.5
		C106.2,8.8,107,9.1,107.6,9.6z M118.4,16.3c0.1,0.1,0.1,0.2,0.1,0.2c0,0.1-0.1,0.2-0.1,0.4c-0.1,0.1-0.3,0.3-0.5,0.4
		c-0.9,0.5-1.8,0.8-2.7,0.8c-1.3,0-2.4-0.4-3.2-1.2c-0.8-0.8-1.2-2-1.2-3.4c0-0.9,0.2-1.7,0.5-2.4c0.3-0.7,0.8-1.2,1.4-1.6
		c0.6-0.4,1.3-0.6,2.2-0.6c1.1,0,2,0.4,2.7,1.1c0.6,0.8,1,1.8,1,3c0,0.2-0.1,0.4-0.1,0.5c-0.1,0.1-0.2,0.2-0.5,0.2h-6.3
		c0,1.2,0.3,2.1,0.9,2.8c0.6,0.6,1.4,1,2.5,1c0.6,0,1.1-0.1,1.5-0.2c0.4-0.2,0.8-0.4,1.1-0.6c0.3-0.2,0.4-0.3,0.5-0.3
		C118.3,16.2,118.4,16.2,118.4,16.3L118.4,16.3z M112.7,10.4c-0.6,0.6-0.9,1.4-1,2.5h6.1c0-1.1-0.3-1.9-0.8-2.5
		c-0.5-0.6-1.2-0.9-2.1-0.9C114.1,9.5,113.3,9.8,112.7,10.4L112.7,10.4z M125.9,17.9c-0.1-0.1-0.1-0.2-0.1-0.3V5.3
		c0-0.1,0.1-0.2,0.1-0.3c0.1-0.1,0.2-0.1,0.3-0.1h6.9c0.1,0,0.2,0,0.2,0.1c0.1,0.1,0.1,0.2,0.1,0.3c0,0.1,0,0.2-0.1,0.3
		c-0.1,0.1-0.1,0.1-0.2,0.1h-6.6V11h6.2c0.1,0,0.2,0,0.2,0.1c0.1,0.1,0.1,0.2,0.1,0.3c0,0.1,0,0.2-0.1,0.3c-0.1,0.1-0.1,0.1-0.2,0.1
		h-6.2v5.9c0,0.3-0.1,0.4-0.4,0.4C126.1,18.1,126,18,125.9,17.9L125.9,17.9z M139.5,8.8c0.2,0,0.3,0,0.3,0.1
		c0.1,0.1,0.1,0.1,0.1,0.3c0,0.2-0.1,0.3-0.4,0.4L139,9.6c-0.9,0.1-1.6,0.4-2,1c-0.5,0.6-0.7,1.2-0.7,2v5c0,0.1,0,0.2-0.1,0.3
		c-0.1,0.1-0.2,0.1-0.3,0.1c-0.1,0-0.2,0-0.3-0.1c-0.1-0.1-0.1-0.2-0.1-0.3V9.2c0-0.3,0.1-0.4,0.4-0.4c0.1,0,0.2,0,0.3,0.1
		c0.1,0.1,0.1,0.2,0.1,0.3v1.3c0.5-1.1,1.5-1.6,2.9-1.7l0.3,0L139.5,8.8L139.5,8.8L139.5,8.8z M147.8,12.1v5.5c0,0.1,0,0.2-0.1,0.3
		c-0.1,0.1-0.2,0.1-0.3,0.1c-0.1,0-0.2-0.1-0.3-0.1c-0.1-0.1-0.1-0.2-0.1-0.3v-1.3c-0.2,0.5-0.6,1-1.2,1.3c-0.5,0.3-1.1,0.5-1.7,0.5
		c-0.6,0-1.1-0.1-1.5-0.4c-0.5-0.2-0.8-0.6-1.1-1c-0.3-0.4-0.4-0.9-0.4-1.4c0-0.7,0.2-1.2,0.5-1.6c0.4-0.4,0.9-0.6,1.7-0.8
		c0.8-0.2,1.9-0.2,3.4-0.2h0.4V12c0-0.9-0.2-1.5-0.5-1.9c-0.4-0.4-0.9-0.6-1.6-0.6c-0.9,0-1.9,0.2-2.7,0.8c-0.1,0-0.2,0.1-0.3,0.2
		c-0.2,0.1-0.3,0.2-0.4,0.2c-0.1,0-0.2,0-0.2-0.1c-0.1-0.1-0.1-0.2-0.1-0.3c0-0.2,0.2-0.5,0.6-0.8c0.4-0.3,0.9-0.5,1.4-0.6
		c0.5-0.1,1-0.2,1.5-0.2C146.8,8.8,147.8,9.9,147.8,12.1L147.8,12.1z M145.6,16.9c0.4-0.3,0.8-0.6,1-1.1c0.2-0.5,0.4-1,0.4-1.6v-0.7
		h-0.4c-1.3,0-2.3,0.1-2.9,0.2c-0.7,0.1-1.2,0.3-1.4,0.5c-0.3,0.3-0.4,0.6-0.4,1.1c0,0.6,0.2,1,0.6,1.4s0.9,0.5,1.6,0.5
		C144.7,17.3,145.2,17.2,145.6,16.9L145.6,16.9z M163.1,12.2v5.4c0,0.1,0,0.2-0.1,0.3c-0.1,0.1-0.2,0.1-0.3,0.1
		c-0.1,0-0.2-0.1-0.3-0.1c-0.1-0.1-0.1-0.2-0.1-0.3v-5.4c0-1-0.2-1.7-0.5-2.1c-0.3-0.4-0.9-0.6-1.6-0.6c-0.8,0-1.5,0.3-2.1,0.9
		c-0.5,0.6-0.8,1.4-0.8,2.4v4.9c0,0.1,0,0.2-0.1,0.3c-0.1,0.1-0.2,0.1-0.3,0.1c-0.1,0-0.2-0.1-0.3-0.1c-0.1-0.1-0.1-0.2-0.1-0.3
		v-5.4c0-1-0.2-1.7-0.5-2.1c-0.3-0.4-0.9-0.6-1.6-0.6c-0.9,0-1.6,0.3-2.1,0.9c-0.5,0.6-0.7,1.4-0.7,2.4v4.9c0,0.1,0,0.2-0.1,0.3
		c-0.1,0.1-0.2,0.1-0.3,0.1c-0.1,0-0.2-0.1-0.3-0.1c-0.1-0.1-0.1-0.2-0.1-0.3V9.3c0-0.3,0.1-0.4,0.4-0.4c0.1,0,0.2,0,0.3,0.1
		c0.1,0.1,0.1,0.2,0.1,0.3v1.3c0.3-0.6,0.6-1,1.1-1.3c0.5-0.3,1.1-0.5,1.7-0.5c1.4,0,2.4,0.6,2.7,1.8c0.3-0.5,0.7-1,1.2-1.3
		c0.6-0.3,1.2-0.5,1.8-0.5C162.1,8.8,163.1,9.9,163.1,12.2L163.1,12.2z M173.2,16.3c0.1,0.1,0.1,0.2,0.1,0.2c0,0.1-0.1,0.2-0.1,0.4
		c-0.1,0.1-0.3,0.3-0.5,0.4c-0.9,0.5-1.8,0.8-2.7,0.8c-1.3,0-2.4-0.4-3.2-1.2c-0.8-0.8-1.2-2-1.2-3.4c0-0.9,0.2-1.7,0.5-2.4
		c0.3-0.7,0.8-1.2,1.4-1.6c0.6-0.4,1.3-0.6,2.2-0.6c1.1,0,2,0.4,2.7,1.1c0.6,0.8,1,1.8,1,3c0,0.2-0.1,0.4-0.1,0.5
		c-0.1,0.1-0.2,0.2-0.5,0.2h-6.3c0,1.2,0.3,2.1,0.9,2.8c0.6,0.6,1.4,1,2.5,1c0.6,0,1.1-0.1,1.5-0.2c0.4-0.2,0.8-0.4,1.1-0.6
		c0.3-0.2,0.4-0.3,0.5-0.3C173,16.2,173.1,16.2,173.2,16.3L173.2,16.3z M167.5,10.4c-0.6,0.6-0.9,1.4-1,2.5h6.1
		c0-1.1-0.3-1.9-0.8-2.5c-0.5-0.6-1.2-0.9-2.1-0.9C168.8,9.5,168,9.8,167.5,10.4L167.5,10.4z"/>
	<g>
		<path fill="#2C2C2C" d="M15.5,15.7H0.4c-0.1,0-0.3-0.1-0.3-0.3V0.3C0.1,0.1,0.2,0,0.4,0h15.1c0.1,0,0.3,0.1,0.3,0.3v15.2
			C15.8,15.6,15.7,15.7,15.5,15.7z M23.6,10.1h-6.7c-0.2,0-0.3-0.1-0.3-0.3V0.3c0-0.1,0.1-0.3,0.3-0.3h6.7c0.2,0,0.3,0.1,0.3,0.3
			v9.6C23.9,10,23.8,10.1,23.6,10.1z M23.6,23.8H0.4c-0.1,0-0.3-0.1-0.3-0.3v-6.7c0-0.2,0.1-0.3,0.3-0.3h23.2c0.2,0,0.3,0.1,0.3,0.3
			v6.7C23.9,23.7,23.8,23.8,23.6,23.8z M23.6,15.7h-6.7c-0.2,0-0.3-0.1-0.3-0.3v-4.1c0-0.1,0.1-0.3,0.3-0.3h6.7
			c0.2,0,0.3,0.1,0.3,0.3v4.1C23.9,15.6,23.8,15.7,23.6,15.7z"/>
	</g>
</g>
</svg>
