<?xml version="1.0" encoding="UTF-8" standalone="no"?>
<svg width="20px" height="20px" viewBox="0 0 20 20" version="1.1" xmlns="http://www.w3.org/2000/svg" xmlns:xlink="http://www.w3.org/1999/xlink">
    <!-- Generator: sketchtool 48.2 (47327) - http://www.bohemiancoding.com/sketch -->
    <title>4D54648F-62AA-425B-9B6E-16145A21EBDD</title>
    <desc>Created with sketchtool.</desc>
    <defs></defs>
    <g id="header/mobile/search_2" stroke="none" stroke-width="1" fill="none" fill-rule="evenodd" transform="translate(-10.000000, -15.000000)">
        <g id="header-menu" fill="#2C2C2C" fill-rule="nonzero">
            <g id="logo" transform="translate(10.000000, 15.000000)">
                <g id="Group">
                    <path d="M12.9214029,13.0638298 L0.297532304,13.0638298 C0.191270767,13.0638298 0.0850092296,12.9787234 0.0850092296,12.8510638 L0.0850092296,0.212765957 C0.0850092296,0.106382979 0.191270767,0 0.297532304,0 L12.9214029,0 C13.0276644,0 13.133926,0.106382979 13.133926,0.212765957 L13.133926,12.8510638 C13.133926,12.9787234 13.0489167,13.0638298 12.9214029,13.0638298 Z" id="Shape"></path>
                    <path d="M19.6796366,8.44680851 L14.1115321,8.44680851 C13.9840183,8.44680851 13.899009,8.36170213 13.899009,8.23404255 L13.899009,0.212765957 C13.899009,0.106382979 13.9840183,-1.42108547e-14 14.1115321,-1.42108547e-14 L19.6796366,-1.42108547e-14 C19.8071505,-1.42108547e-14 19.8921597,0.106382979 19.8921597,0.212765957 L19.8921597,8.23404255 C19.8921597,8.36170213 19.7858982,8.44680851 19.6796366,8.44680851 Z" id="Shape"></path>
                    <path d="M19.6796366,19.8297872 L0.318784611,19.8297872 C0.212523074,19.8297872 0.106261537,19.7446809 0.106261537,19.6170213 L0.106261537,14.0425532 C0.106261537,13.9148936 0.212523074,13.8297872 0.318784611,13.8297872 L19.6796366,13.8297872 C19.8071505,13.8297872 19.8921597,13.9148936 19.8921597,14.0425532 L19.8921597,19.6170213 C19.8921597,19.7234043 19.7858982,19.8297872 19.6796366,19.8297872 Z" id="Shape"></path>
                    <path d="M19.6796366,13.0638298 L14.1115321,13.0638298 C13.9840183,13.0638298 13.899009,12.9787234 13.899009,12.8510638 L13.899009,9.44680851 C13.899009,9.34042553 13.9840183,9.23404255 14.1115321,9.23404255 L19.6796366,9.23404255 C19.8071505,9.23404255 19.8921597,9.34042553 19.8921597,9.44680851 L19.8921597,12.8510638 C19.8921597,12.9787234 19.7858982,13.0638298 19.6796366,13.0638298 Z" id="Shape"></path>
                </g>
            </g>
        </g>
    </g>
</svg>