<svg xmlns="http://www.w3.org/2000/svg" width="20" height="20" viewBox="0 0 20 20">
    <g fill="#FFF" fill-rule="nonzero">
        <path d="M8.934 12.246c.274.074.562.118.86.118a3.276 3.276 0 0 0 3.272-3.273c0-.298-.044-.585-.118-.86l-4.014 4.015zM7.636 9.455a.364.364 0 0 1-.363-.364 2.548 2.548 0 0 1 2.545-2.545.364.364 0 1 1 0 .727A1.82 1.82 0 0 0 8 9.091a.364.364 0 0 1-.364.364M5.818 9.09c0-2.205 1.795-4 4-4a3.98 3.98 0 0 1 2.926 1.288l-.513.513a3.256 3.256 0 0 0-2.413-1.073A3.276 3.276 0 0 0 6.545 9.09c0 .957.417 1.814 1.074 2.413l-.514.513a3.98 3.98 0 0 1-1.287-2.926M19.53.107a.363.363 0 0 0-.514 0l-4.08 4.08a10.886 10.886 0 0 0-5.118-1.278A10.86 10.86 0 0 0 .064 8.93a.364.364 0 0 0 0 .327 10.868 10.868 0 0 0 4.92 4.883L.106 19.016a.363.363 0 1 0 .514.514L19.53.621a.363.363 0 0 0 0-.514"/>
        <path d="M16.2 4.98l-2.677 2.677c.172.446.27.928.27 1.434 0 2.206-1.794 4-4 4-.506 0-.988-.098-1.434-.27l-1.923 1.923c1.066.342 2.194.53 3.357.53a10.86 10.86 0 0 0 9.754-6.019.364.364 0 0 0 0-.326 10.923 10.923 0 0 0-3.347-3.95"/>
    </g>
</svg>
