<svg xmlns="http://www.w3.org/2000/svg" width="20" height="20" viewBox="0 0 20 20">
    <g fill="none" fill-rule="nonzero">
        <path fill="#2C2C2C" d="M.909 7.725A6.824 6.824 0 0 1 7.725.909a6.824 6.824 0 0 1 6.815 6.816c0 1.81-.713 3.453-1.868 4.675l-.273.273a6.785 6.785 0 0 1-4.674 1.868A6.824 6.824 0 0 1 .909 7.725zM20 18.765l-6.237-6.237a7.683 7.683 0 0 0 1.686-4.803C15.45 3.465 11.984 0 7.725 0 3.465 0 0 3.465 0 7.725s3.465 7.725 7.725 7.725a7.68 7.68 0 0 0 4.803-1.686L18.764 20 20 18.764z"/>
        <path fill="#FFF" d="M12.857 7.143a5.714 5.714 0 1 1-11.428 0 5.714 5.714 0 0 1 11.428 0"/>
    </g>
</svg>
