<?xml version="1.0" encoding="utf-8"?>
<!-- Generator: Adobe Illustrator 18.0.0, SVG Export Plug-In . SVG Version: 6.00 Build 0)  -->
<!DOCTYPE svg PUBLIC "-//W3C//DTD SVG 1.1//EN" "http://www.w3.org/Graphics/SVG/1.1/DTD/svg11.dtd">
<svg version="1.1" id="Layer_1" xmlns="http://www.w3.org/2000/svg" xmlns:xlink="http://www.w3.org/1999/xlink" x="0px" y="0px"
	 viewBox="0 0 32.4 32.4" enable-background="new 0 0 32.4 32.4" xml:space="preserve">
<circle fill="#EEF0F0" cx="16.2" cy="16.2" r="16"/>
<g>
	<g>
		<path fill="#FFFFFF" d="M18,18.1h-7.6c-0.1,0-0.2-0.1-0.2-0.2v-7.6c0-0.1,0.1-0.2,0.2-0.2H18c0.1,0,0.2,0.1,0.2,0.2V18
			C18.1,18.1,18.1,18.1,18,18.1z M22,15.3h-3.4c-0.1,0-0.2-0.1-0.2-0.2v-4.8c0-0.1,0.1-0.2,0.2-0.2H22c0.1,0,0.2,0.1,0.2,0.2v4.8
			C22.2,15.2,22.1,15.3,22,15.3z M22,22.2H10.3c-0.1,0-0.2-0.1-0.2-0.2v-3.4c0-0.1,0.1-0.2,0.2-0.2H22c0.1,0,0.2,0.1,0.2,0.2V22
			C22.2,22.1,22.1,22.2,22,22.2z M22,18.1h-3.4c-0.1,0-0.2-0.1-0.2-0.2v-2.1c0-0.1,0.1-0.2,0.2-0.2H22c0.1,0,0.2,0.1,0.2,0.2V18
			C22.2,18.1,22.1,18.1,22,18.1z"/>
	</g>
</g>
</svg>
